<svg width="1440" height="439" viewBox="0 0 1440 439" fill="none" xmlns="http://www.w3.org/2000/svg">
<path d="M47 0.000135422C95.3469 -2.87046 158.201 -5.07959 227.855 8.65459e-05L508.5 0.000135422H1440V10.0001V259C1278 355.667 922.688 478.645 724.288 233.445C585.838 62.3363 388.714 11.7312 227.855 8.65459e-05L47 0.000135422Z" fill="#091321"/>
<path d="M751.488 203.435C521.961 -17.6405 159.21 -15.0118 -9.22068e-06 14.5001L-1.10226e-05 4.00005L-3.82035e-08 4.76072e-09L489.5 6.04244e-05L1116.5 -8.80956e-05L1440 -8.79854e-05L1440 147.5C1289.68 264.662 981.015 424.511 751.488 203.435Z" fill="#0B182C"/>
</svg>
